<svg xmlns="http://www.w3.org/2000/svg" viewBox="0 0 132 193.37"><defs><style>.cls-1{fill:#4d4d4d;}</style></defs><title>sdcAsset 4</title><g id="Layer_2" data-name="Layer 2"><g id="Layer_1-2" data-name="Layer 1"><path class="cls-1" d="M8.61,47.65,0,71.84V112l8.61,2L4,124.31V135.4H8v29h8.11L21,171v5.74l8.14,4.1,4.48-2.46,2,7.38,6.92,7.38s9-1.23,11,0S72.72,191,72.72,191l3.66-4.51,9.78,1.23,2-5.33,10.59-4.1L100,173l5.3-10.24,5.7-6.56v-8l7-4.37v-8.61l4-8.61v-8.2l-2.22-11.07,2.22-7h3.85l3.28-1.1-4.51-11.06,7.38,4.5-7.38-15.16,3.69-2.46-2.87-10.66-5.33-6.15-3.37-10.66L109.45,69l-1.64,8.2-9.4-5.67L88.14,68.4H75l-9,3.44L61.08,74.3l-9-1.23-4.51-2-7-3.28-7.78.41L27.88,71l-6.56,1.23-4.1,1.23-3.69-4.92L9.84,63.23Z"/><polygon class="cls-1" points="32.8 68.15 25.83 72.39 19.17 72.39 17.13 78.75 11 88.06 11 96.96 11 103.31 8.96 106.63 17.95 102.04 23.87 95.27 28.98 90.18 31.03 85.1 35.93 87.39 38.79 90.18 45.74 91.03 51.05 87.39 57.18 87.39 60.45 87.39 65.77 87.39 74.35 91.88 76.39 90.18 79.25 87.39 84.02 85.52 86.2 84.68 90.7 87.39 96.01 91.88 101.32 95.27 105 100.77 105 105.97 112 101.53 112 94.15 112 87.35 108.63 81.44 105.35 75.7 95.52 71.6 88.14 68.39 75.02 68.39 70.53 70.19 57.8 73.65 51.41 72.77 47.55 71.02 40.58 67.74 32.8 68.15"/><polygon class="cls-1" points="24.24 79.09 13.15 86.02 20.34 83.7 12 89.99 18.65 88.4 12 94.28 12 101.34 17.05 94.03 16.43 99.09 20.54 92.74 21.84 93.42 25.74 88.31 28.85 83.08 38.05 86.6 45.01 86.97 50.34 85.39 56.49 85.39 59.77 85.39 65.1 85.39 73.71 87.34 72.64 83.39 78.63 85.39 83.41 84.58 85.6 84.22 90.11 85.39 90.73 83.39 100.93 92.16 101.02 88.98 104.03 94.2 107.49 99.67 106.37 93.04 109.53 95.27 105.81 87.38 100.05 84.18 95.88 81.57 87.01 80.59 81.96 82.1 72.64 80.15 57.31 79.26 46.49 81.84 38.51 79.62 32.04 76.61 24.24 79.09"/><polygon class="cls-1" points="35 108.76 35 117.3 38 124.08 38 130.32 38 133.53 39.98 131.95 42 145.53 42 155.77 38.62 165.14 45.47 164.69 49.19 171.27 51.89 176.07 53.23 170.47 56.36 175.37 59.96 174.81 62.39 174.63 65.78 164.39 69.12 174.14 70.36 172.01 71.65 163.75 73.75 166.18 75.46 153.67 80 155.25 80 147.48 77.4 127.68 80 133.03 80 126.36 85 119.7 83.12 104.08 85 108.9 85 99.98 82.17 101.26 75.04 104.48 75.67 107.47 72.95 104.64 65.53 106.13 58.99 106.58 50.26 107.18 48.47 107.27 44.42 109.93 42.84 107.53 39.21 107.71 35 103.5 35 108.76"/><polygon class="cls-1" points="41 115.51 41 127.19 42.74 123.38 43 131.63 43 134.46 44.62 133.17 43.84 150.9 45.29 140.85 45.95 154.46 47.01 161.73 49.52 157.81 49.39 165.3 52.83 162.92 57.78 166.87 60.31 166.47 66.84 158.69 68.54 165.09 69.47 157.82 71.07 161.87 73.31 155.87 76 151.16 76 145.84 73.92 130 76 134.28 76.82 124.64 79.09 121.65 75.67 114.25 80 117.96 80 108.66 73.02 111.82 63.16 113.79 61.7 117.61 60.5 113.75 51.45 114.38 51.31 118.15 48.48 114.49 44.28 114.69 41 111.41 41 115.51"/><path class="cls-1" d="M47,122.93v4.22c0,.12.41-1.18.45-1.06l.29,3.2.55,1.38a1.16,1.16,0,0,1,.07.37l1.1-3.28-1.1,7.67a.86.86,0,0,0,0,.32l.39,1.2.94,2.82.44-1.65c0,.1.82,4.25.82,4.25V147a1,1,0,0,1-.06.34l-1.53,4.25a1,1,0,0,0,.15,1L52,149.86c0,.06.15,1,.29,2.12.1.84.21,1.79.32,2.62.14,1.09,1.29-.7,1.35-.68l.43,3.22,1.59.62c.3-2.51.35.08.52.05l1.62-.25,3.16-.5,3.31-.52c.26,0,2.07-4.87,2.23-5.09l.89,1.24.06-.09,3.13-5.47c.08-.16-1.34-7.5-1.34-7.68L71,142.51v-4.43l-1.45-9.39,1.11,3.67c0-.22,1.33-6.17,1.46-6.34l.81,3a1.08,1.08,0,0,0,.07-.6v-8.46h0c0-.73-1.76-.2-2.42.1l-.22,2.38c-.07,0-.53-1.84-2.12-1.91l-2.33.47-3,.59-.13,0-4,.27-3.87.27-3.55.17-.11,3.42c-.29,0-2.2-3.43-2.4-3.63l-.16-.15a1,1,0,0,0-1.72.71Z"/><path class="cls-1" d="M71.75,3.69c1.3-.48,2.59-1,3.86-1.55l.13,2.23,1.2-1A95.64,95.64,0,0,0,90.64.23,3,3,0,0,1,92,0,3,3,0,0,1,93.11.5c6.15,3.69,12.44,7.5,16.8,13.13A73.66,73.66,0,0,0,95.66,8.72c-4.94-1-10.24-.9-14.83,1.14l.84-1.94A14.38,14.38,0,0,1,77.3,9.35l.76-2.14-3.89,2.6a8.86,8.86,0,0,1,.14-1.62,21.17,21.17,0,0,0-2.43,1.32,1.35,1.35,0,0,1,.24-.91C69.94,12.12,65,7,64.74,4.42c.66.27,2.2.14,3,.56-.15-.84.48-2.17.34-3A12.23,12.23,0,0,1,71.75,3.69Z"/><path class="cls-1" d="M10.63,22.16a15.21,15.21,0,0,1,3.42-8.78l-.87-.18a3,3,0,0,1,1.71-1.11c-.63-.09-.82-1-.47-1.51A2.85,2.85,0,0,1,16,9.63,42.19,42.19,0,0,1,26.73,7.21C30.4,7,34.27,7.9,37,10.36V7.52l2.64,2.53-.39-2.78A8.22,8.22,0,0,1,42,9.66l-.3-1.88a4.61,4.61,0,0,0,2.39.72l-1.9-2.35,2.18,1.22a7.42,7.42,0,0,0-2.21-1.51,6.14,6.14,0,0,1,4.66.9c-.42.51-1.31.1-1.58-.51S45,4.94,44.75,4.32c-.52-1.37-2.19-1.85-3.64-2a20,20,0,0,0-7.22.6,2.32,2.32,0,0,0,2.63-1A28.51,28.51,0,0,0,25.44,4.15,5.8,5.8,0,0,0,25.56.47L25.1,1.84l-4.46,1.4,1.87.1c-1.84-.1-3.54.83-5.53.49a7.08,7.08,0,0,1,1.12.83C14.34,10.89,10.25,13.93,10.63,22.16Z"/><path class="cls-1" d="M69.55,5a4.79,4.79,0,0,1,.83,1.58l-1.3-3.21a4.52,4.52,0,0,1,1.44,2.24,6.53,6.53,0,0,1-.6-2.65,9.1,9.1,0,0,1,1,3V4.26a4.84,4.84,0,0,1,.6,2l0-1.58,1,1.51A2.74,2.74,0,0,1,73.92,5l0,.57a6.58,6.58,0,0,0,1.07-2,1.73,1.73,0,0,0-.2,2.39l.48-1.32V6.08L77,4.83a2.51,2.51,0,0,1-.18,1.43,19,19,0,0,1,1.74-2,1.89,1.89,0,0,1-.28,1.18,10.5,10.5,0,0,1,2.24-1.14,2.69,2.69,0,0,1-1.1,1.8,12,12,0,0,1,3.47-2.42A2,2,0,0,1,81.76,5.1a15.6,15.6,0,0,1,3-1.64,3.42,3.42,0,0,1-1.23,1.69,10.49,10.49,0,0,1,3.38-2.1,2.83,2.83,0,0,1-1,1,12.59,12.59,0,0,1,3.94-2.3,7.08,7.08,0,0,1-1.87,1.75L92.23.91a6.21,6.21,0,0,1-1.17,2.25L93.28,1.8A8.78,8.78,0,0,1,92.2,3.33l2.07-1A3.17,3.17,0,0,1,93,3.53l1.8-.69L93.55,4l2.57-.63a4.23,4.23,0,0,1-1.27,1.11A6.8,6.8,0,0,1,96.93,4l-1.37.91a5.54,5.54,0,0,1,1.86-.19,5.8,5.8,0,0,1-1.7.67H99l-4.83.85,7,0A6.44,6.44,0,0,1,98.17,7a17.78,17.78,0,0,1,4.55.21l-4.41.45a23.05,23.05,0,0,1,6.08.72l-4.63.1a7.68,7.68,0,0,1,5.37,1.45l-3.43-.4a8.24,8.24,0,0,1,4.86,1.4,6.74,6.74,0,0,1-3.51-1,31,31,0,0,0-8.58-2.49A3.38,3.38,0,0,0,97,7a26.86,26.86,0,0,0-9.07.56l.22-.91-1.75.92,1-.81a4.08,4.08,0,0,1-1.51,1A.83.83,0,0,1,86.16,7a2.57,2.57,0,0,1-1.67,1.18A1.46,1.46,0,0,1,85,7.44a1.92,1.92,0,0,1-1.45,1l.82-1a2,2,0,0,1-1.45,1.11,2.39,2.39,0,0,1,.67-1,1.48,1.48,0,0,1-1,.85,19.88,19.88,0,0,0,3.12-2A6.4,6.4,0,0,1,82.7,7.55l2.38-1.67-4,1.27a5.5,5.5,0,0,1,1.66-1.29,23.58,23.58,0,0,1-3.52,2.33l1.39-2A2.56,2.56,0,0,1,79.1,7.85l.45-1.2a3.8,3.8,0,0,1-1.15,1.6l.32-1.47c-.27-.42-1-.25-1.31.1s-.61.82-1.08,1a1.08,1.08,0,0,1-1.39-1.14l-.73,1.11L74,6.93a2.09,2.09,0,0,1-.45.92l-.88-.69v.65a3.45,3.45,0,0,1-1.07-.65l.33.49a.67.67,0,0,1-.81-.42,1.92,1.92,0,0,1,.69,1,1.94,1.94,0,0,1-1.39-1.39l.29,2a7.81,7.81,0,0,1-2.36-.88,2.64,2.64,0,0,1-1.27-2.07c0,.68,1,1.35,1.58,1.46a2.69,2.69,0,0,1-.58-2.46c1,.64,1.53,2.33,2.39,3.21A5.41,5.41,0,0,1,69.55,5Z"/><path class="cls-1" d="M39.53,4.57A6.62,6.62,0,0,1,41,6.34l-.25-2.13a3.47,3.47,0,0,1,1,1.16L41.3,4a6.57,6.57,0,0,0,1.86,1.54,2.12,2.12,0,0,0-1.69-2.09l.52.61a6.66,6.66,0,0,1-2-1,.83.83,0,0,0,.45.7,9.44,9.44,0,0,0-2.9-.27,3.31,3.31,0,0,1,1.69,1l-3.73-.87a3.11,3.11,0,0,1,1.35.75l-3.1-1,.83.45-2.88-.65,1,.47a4.57,4.57,0,0,1-2.35,0l.93.35A7.17,7.17,0,0,1,29,4.3l.75,0a17.78,17.78,0,0,1-3-.21,2.07,2.07,0,0,1,1.07.17,12.35,12.35,0,0,0-4.37,1.47l.9-1.07c-.17.17-.49,0-.57-.21a1,1,0,0,1,.1-.71.44.44,0,0,1,0,.56,3.28,3.28,0,0,0-1.38-1.09.46.46,0,0,0,.24.45,7.26,7.26,0,0,0-3.51,1,9.58,9.58,0,0,1,3.62,0,3.43,3.43,0,0,1-2.37.08,2.3,2.3,0,0,0-2.24.48,2.29,2.29,0,0,1,1.55,0L17.07,6.77l2.23-.29a7.24,7.24,0,0,0-3.61,2l1.2-.61L14,9.78a6.77,6.77,0,0,1,2.15-.69L15,9.87q1.72-.7,3.51-1.29a1.45,1.45,0,0,0-.68-.8,2.17,2.17,0,0,1,1.28.36l-.67-.58,1.77.56-1.08-.78a5,5,0,0,1,1.57.41l-.94-.9a10,10,0,0,1,1.78.5l-1-1a16.86,16.86,0,0,1,2.06.74l-1.56-.76,3.09,1.09A3.76,3.76,0,0,1,23,6.74a10,10,0,0,0,2,.67.56.56,0,0,0-.29-.53L27,7a3,3,0,0,0-1-.73,7.25,7.25,0,0,1,2.59,1.1,3.73,3.73,0,0,1-1.06-1.07L29.77,7.7a1.93,1.93,0,0,0-.6-1.31l2.5,1.46L30.45,6.14l3,2L32,6.08A41.15,41.15,0,0,0,35.2,10l-1-3.79L35.79,9A18.69,18.69,0,0,0,34,5.84l3.51,2.75A26.25,26.25,0,0,0,35.67,6a11,11,0,0,1,2.75,2.86L37,5.33a16.31,16.31,0,0,0,2.7,3,15.62,15.62,0,0,0-1.29-2.93,24.47,24.47,0,0,0,2.15,3.1A12,12,0,0,1,39.45,5c.08.52,1.23,1.65,1.55,2.14A25.6,25.6,0,0,0,39.53,4.57Z"/><path class="cls-1" d="M5.35,25.88A14,14,0,0,1,6.5,20.25a14.72,14.72,0,0,1,7.71-7.71,14,14,0,0,1,5.63-1.14H42v9H19.08a4.93,4.93,0,0,0-2,.38,5,5,0,0,0-1.58,1.06,5,5,0,0,0-1.45,3.54,5.05,5.05,0,0,0,.39,2A4.87,4.87,0,0,0,17.12,30a4.93,4.93,0,0,0,2,.39h10.4a14.32,14.32,0,0,1,5.65,1.12,14.69,14.69,0,0,1,4.62,3.11,14.44,14.44,0,0,1,3.1,4.62,14.64,14.64,0,0,1,0,11.28,14.69,14.69,0,0,1-3.1,4.6,14.89,14.89,0,0,1-4.62,3.12,14.16,14.16,0,0,1-5.65,1.15H8v-9H30.27a4.93,4.93,0,0,0,2-.39,5,5,0,0,0,2.66-2.66,5.22,5.22,0,0,0,0-3.91,5,5,0,0,0-2.66-2.66,4.93,4.93,0,0,0-2-.38H19.84a14,14,0,0,1-5.63-1.15A14.67,14.67,0,0,1,6.5,31.52,14.08,14.08,0,0,1,5.35,25.88Z"/><path class="cls-1" d="M80.46,35.4a23.59,23.59,0,0,1-.85,6.37,23.86,23.86,0,0,1-2.43,5.73,24.85,24.85,0,0,1-3.75,4.85,23.6,23.6,0,0,1-4.85,3.76,24.11,24.11,0,0,1-5.74,2.43,23.67,23.67,0,0,1-6.38.86H42v-48H56.46a23.67,23.67,0,0,1,6.38.85,23.95,23.95,0,0,1,10.59,6.19,24.85,24.85,0,0,1,3.75,4.85A23.86,23.86,0,0,1,79.61,29,23.61,23.61,0,0,1,80.46,35.4Zm-9.14-.5a14.07,14.07,0,0,0-1.13-5.64,14.52,14.52,0,0,0-3.1-4.6,14.83,14.83,0,0,0-4.62-3.12,14.12,14.12,0,0,0-5.65-1.14H52v29h4.82a14.29,14.29,0,0,0,5.65-1.13,14.47,14.47,0,0,0,4.62-3.11,14.28,14.28,0,0,0,3.1-4.62A14.07,14.07,0,0,0,71.32,34.9Z"/><path class="cls-1" d="M117.3,54.47a25,25,0,0,1-22.84,5.11,25.11,25.11,0,0,1-6-2.53,24.77,24.77,0,0,1-5.07-3.93,25.33,25.33,0,0,1-3.93-5.07,25,25,0,0,1-2.53-6,24.91,24.91,0,0,1,0-13.27,24.78,24.78,0,0,1,2.53-6,25.11,25.11,0,0,1,3.93-5.08,24.77,24.77,0,0,1,5.07-3.93,25.11,25.11,0,0,1,6-2.53,24.6,24.6,0,0,1,6.62-.89,25.06,25.06,0,0,1,8.67,1.53,24.26,24.26,0,0,1,7.55,4.47l-5.12,8.43a14.54,14.54,0,0,0-5-3.52,15.35,15.35,0,0,0-6.07-1.23,14.93,14.93,0,0,0-6,1.21,15.88,15.88,0,0,0-4.89,3.29,15.4,15.4,0,0,0-3.3,4.89,14.94,14.94,0,0,0-1.22,6,14.66,14.66,0,0,0,1.22,5.95,15.5,15.5,0,0,0,8.19,8.18,14.93,14.93,0,0,0,6,1.21,15.35,15.35,0,0,0,6.07-1.23,14.54,14.54,0,0,0,5-3.52Z"/></g></g></svg>